<svg id="svg" xmlns="http://www.w3.org/2000/svg" xmlns:xlink="http://www.w3.org/1999/xlink" viewBox="0, 0, 400,357.03125"><g id="svgg"><path id="path0" d="M178.991 2.541 C 175.883 3.891,176.193 6.763,179.782 9.873 C 185.430 14.768,187.622 18.236,188.232 23.242 C 189.344 32.374,185.336 39.229,173.795 47.935 C 166.412 53.504,162.781 57.137,159.342 62.397 C 152.049 73.553,152.362 89.718,160.091 101.081 C 161.007 102.427,161.633 103.729,161.482 103.973 C 161.329 104.221,161.380 104.311,161.597 104.177 C 161.979 103.941,168.054 110.811,170.639 114.401 C 175.200 120.735,177.490 128.647,176.523 134.729 C 175.431 141.592,175.791 143.033,178.734 143.585 C 184.440 144.655,189.134 133.278,187.525 122.275 C 186.851 117.666,185.812 114.585,182.976 108.789 C 179.837 102.373,179.147 99.809,179.142 94.531 C 179.136 89.338,181.506 81.419,182.822 82.232 C 183.027 82.359,183.096 82.207,182.976 81.894 C 182.545 80.771,188.059 74.971,196.291 67.888 C 208.737 57.180,212.620 50.337,212.647 39.063 C 212.662 33.023,212.435 28.526,212.159 29.349 C 212.078 29.587,211.533 28.551,210.947 27.045 C 208.124 19.789,198.466 7.422,195.622 7.422 C 195.427 7.422,195.378 7.242,195.514 7.022 C 195.650 6.801,195.599 6.670,195.401 6.729 C 194.780 6.914,190.255 4.189,190.507 3.782 C 190.638 3.569,190.555 3.513,190.322 3.657 C 190.089 3.801,188.580 3.477,186.970 2.936 C 183.707 1.841,180.920 1.703,178.991 2.541 M157.031 113.241 C 157.485 113.565,157.242 113.661,155.954 113.666 C 151.695 113.681,137.242 116.159,128.398 118.390 C 125.863 119.030,123.578 119.432,123.320 119.284 C 123.062 119.136,122.988 119.165,123.154 119.348 C 123.320 119.531,121.650 120.242,119.443 120.928 C 105.814 125.164,96.773 130.426,92.532 136.591 C 91.863 137.563,91.174 138.184,90.931 138.034 C 90.681 137.879,90.616 137.950,90.773 138.205 C 90.921 138.445,90.507 139.701,89.853 140.997 C 87.099 146.454,87.322 139.428,87.189 224.609 C 87.065 304.365,87.142 308.970,88.675 313.552 C 89.565 316.213,89.607 316.547,89.002 316.174 C 88.714 315.996,88.658 316.067,88.846 316.372 C 89.008 316.634,89.240 316.749,89.362 316.627 C 89.484 316.505,90.271 317.673,91.112 319.221 C 93.317 323.286,96.146 326.654,100.177 330.013 C 102.121 331.633,103.663 333.115,103.604 333.305 C 103.545 333.496,103.658 333.552,103.857 333.429 C 104.055 333.307,105.849 334.171,107.844 335.349 C 109.839 336.528,111.793 337.595,112.186 337.720 C 112.580 337.845,112.784 338.137,112.641 338.370 C 112.497 338.602,112.557 338.683,112.773 338.549 C 112.990 338.415,114.643 338.932,116.447 339.697 C 169.861 362.352,253.560 351.479,271.197 319.593 C 271.951 318.230,272.646 317.264,272.743 317.445 C 272.840 317.625,272.872 317.572,272.816 317.327 C 272.759 317.081,273.150 315.505,273.684 313.823 C 275.051 309.518,275.462 303.860,275.319 291.324 L 275.195 280.504 276.163 280.261 C 281.392 278.951,299.690 268.647,306.136 263.385 C 307.040 262.646,307.967 262.159,308.196 262.300 C 308.425 262.442,308.565 262.393,308.506 262.190 C 308.447 261.988,309.893 260.545,311.719 258.984 C 313.545 257.423,316.454 254.757,318.184 253.061 C 319.914 251.364,321.452 250.069,321.602 250.183 C 321.752 250.297,321.799 250.286,321.707 250.158 C 321.615 250.030,323.488 247.613,325.870 244.787 C 345.696 221.265,350.613 193.797,338.270 175.508 C 337.625 174.553,337.201 173.605,337.328 173.400 C 337.455 173.195,337.393 173.076,337.191 173.135 C 336.990 173.194,336.127 172.402,335.275 171.376 C 322.731 156.270,292.808 151.588,277.086 162.271 C 275.295 163.489,275.535 164.372,275.262 155.579 C 274.997 147.088,274.522 144.623,272.337 140.430 C 269.594 135.163,262.007 128.637,254.681 125.244 C 253.172 124.545,252.073 123.825,252.238 123.643 C 252.404 123.461,252.336 123.428,252.089 123.570 C 251.841 123.711,250.083 123.231,248.183 122.502 C 246.282 121.773,243.716 120.862,242.480 120.478 C 241.245 120.094,240.234 119.625,240.234 119.437 C 240.234 119.249,240.074 119.194,239.878 119.315 C 239.682 119.436,237.516 119.018,235.065 118.386 C 225.331 115.876,211.679 113.796,202.734 113.458 C 199.834 113.349,196.038 113.190,194.299 113.104 L 191.137 112.949 191.874 115.947 C 192.279 117.596,192.717 120.571,192.847 122.559 L 193.084 126.172 194.296 126.179 C 205.783 126.244,229.351 130.339,241.531 134.386 C 263.263 141.607,266.473 153.506,249.023 162.161 C 242.481 165.406,225.973 169.948,222.852 169.362 C 222.131 169.226,221.880 169.271,222.199 169.477 C 222.529 169.689,221.388 169.983,219.074 170.282 C 181.636 175.118,132.514 170.973,113.086 161.338 C 86.248 148.030,109.292 131.410,161.625 126.331 C 169.872 125.531,169.362 126.083,166.636 120.898 C 163.086 114.144,162.364 113.282,160.259 113.276 C 159.236 113.273,157.959 113.170,157.422 113.047 C 156.656 112.871,156.572 112.913,157.031 113.241 M305.830 180.694 C 313.600 182.213,321.146 188.888,321.262 194.347 C 321.277 195.050,321.397 195.559,321.529 195.479 C 323.118 194.506,321.809 206.409,319.712 212.001 C 317.321 218.375,307.909 232.229,306.542 231.384 C 306.288 231.227,306.246 231.318,306.433 231.621 C 306.798 232.212,300.848 238.368,300.261 238.006 C 300.051 237.876,299.999 237.964,300.146 238.201 C 301.041 239.650,278.532 255.078,275.522 255.078 C 275.342 255.078,275.238 240.453,275.290 222.578 L 275.385 190.078 276.853 188.557 C 283.729 181.430,294.560 178.492,305.830 180.694 M195.636 207.788 C 198.114 208.502,203.125 210.703,203.125 211.077 C 203.125 211.147,201.851 211.703,200.293 212.313 C 182.444 219.298,172.427 236.275,175.374 254.546 C 178.032 271.022,192.453 283.527,211.914 286.232 L 214.258 286.558 211.719 287.895 C 203.270 292.346,195.495 294.108,186.523 293.604 C 182.382 293.371,175.475 292.110,175.024 291.505 C 174.903 291.343,174.387 291.165,173.877 291.109 C 172.475 290.956,166.934 288.255,163.842 286.218 C 140.345 270.738,140.136 229.498,163.477 213.793 C 173.216 207.240,185.666 204.915,195.636 207.788 " stroke="none" fill="#000000" fill-rule="evenodd"></path></g></svg>